<svg width="561" height="70" viewBox="0 0 561 70" fill="none" xmlns="http://www.w3.org/2000/svg">
<g filter="url(#filter0_i_16_12)">
<path d="M65.9238 49.3672C63.4043 55.4316 59.3174 60.2803 53.6631 63.9131C48.0088 67.5166 41.71 69.3184 34.7666 69.3184C25.2451 69.3184 17.1299 65.9492 10.4209 59.2109C3.74121 52.4727 0.401367 44.3135 0.401367 34.7334C0.401367 25.124 3.74121 16.9502 10.4209 10.2119C17.1299 3.47363 25.2451 0.104492 34.7666 0.104492C41.7686 0.104492 48.1113 1.9502 53.7949 5.6416C59.5078 9.30371 63.6533 14.2256 66.2314 20.4072H52.2129C50.1328 17.7119 47.4668 15.5732 44.2148 13.9912C40.9922 12.3799 37.6963 11.5742 34.3271 11.5742C28.4678 11.5742 23.3994 13.8154 19.1221 18.2979C14.874 22.751 12.75 28.0684 12.75 34.25C12.75 40.8418 14.918 46.4229 19.2539 50.9932C23.6191 55.5635 28.9365 57.8486 35.2061 57.8486C38.3115 57.8486 41.373 57.0869 44.3906 55.5635C47.4082 54.0107 49.9131 51.9453 51.9053 49.3672H65.9238ZM100.843 69.3184C91.2041 69.3184 82.9863 65.9492 76.1895 59.2109C69.4219 52.4727 66.0381 44.3135 66.0381 34.7334C66.0381 25.124 69.4219 16.9502 76.1895 10.2119C82.9863 3.47363 91.2041 0.104492 100.843 0.104492C110.511 0.104492 118.729 3.47363 125.496 10.2119C132.264 16.9502 135.647 25.124 135.647 34.7334C135.647 44.3135 132.264 52.4727 125.496 59.2109C118.729 65.9492 110.511 69.3184 100.843 69.3184ZM100.843 57.8486C107.112 57.8486 112.415 55.6074 116.751 51.125C121.116 46.6426 123.299 41.1787 123.299 34.7334C123.299 28.2588 121.116 22.7803 116.751 18.2979C112.415 13.8154 107.112 11.5742 100.843 11.5742C94.5732 11.5742 89.2559 13.8154 84.8906 18.2979C80.5547 22.7803 78.3867 28.2588 78.3867 34.7334C78.3867 41.1787 80.5547 46.6426 84.8906 51.125C89.2559 55.6074 94.5732 57.8486 100.843 57.8486ZM171.929 69.3184C162.29 69.3184 154.072 65.9492 147.275 59.2109C140.508 52.4727 137.124 44.3135 137.124 34.7334C137.124 25.124 140.508 16.9502 147.275 10.2119C154.072 3.47363 162.29 0.104492 171.929 0.104492C181.597 0.104492 189.814 3.47363 196.582 10.2119C203.35 16.9502 206.733 25.124 206.733 34.7334C206.733 44.3135 203.35 52.4727 196.582 59.2109C189.814 65.9492 181.597 69.3184 171.929 69.3184ZM171.929 57.8486C178.198 57.8486 183.501 55.6074 187.837 51.125C192.202 46.6426 194.385 41.1787 194.385 34.7334C194.385 28.2588 192.202 22.7803 187.837 18.2979C183.501 13.8154 178.198 11.5742 171.929 11.5742C165.659 11.5742 160.342 13.8154 155.977 18.2979C151.641 22.7803 149.473 28.2588 149.473 34.7334C149.473 41.1787 151.641 46.6426 155.977 51.125C160.342 55.6074 165.659 57.8486 171.929 57.8486ZM225.524 68H219.372H213.22V1.42285H219.372H225.524V30.8223L246.618 1.42285H253.825H261.032L235.764 34.1621L261.032 68H253.825H246.574L225.524 38.6445V68ZM483.861 31.042C485.15 31.8037 486.396 32.7119 487.597 33.7666C491.845 37.5459 493.969 42.248 493.969 47.873C493.969 53.9668 491.83 59.0645 487.553 63.166C483.305 67.2676 478.031 69.3184 471.732 69.3184C465.434 69.3184 460.16 67.2676 455.912 63.166C451.664 59.0645 449.54 53.9668 449.54 47.873C449.54 42.248 451.664 37.5312 455.912 33.7227C457.055 32.6973 458.285 31.8037 459.604 31.042L458.593 30.1631C455.077 26.9697 453.319 23 453.319 18.2539C453.319 13.0977 455.077 8.79102 458.593 5.33398C462.138 1.84766 466.518 0.104492 471.732 0.104492C476.977 0.104492 481.356 1.84766 484.872 5.33398C488.417 8.79102 490.189 13.0977 490.189 18.2539C490.189 23 488.417 26.9697 484.872 30.1631L483.861 31.042ZM471.732 25.8125C473.783 25.8125 475.482 25.124 476.83 23.7471C478.207 22.3701 478.896 20.6416 478.896 18.5615C478.896 16.4814 478.207 14.7529 476.83 13.376C475.482 11.9697 473.783 11.2666 471.732 11.2666C469.711 11.2666 468.012 11.9697 466.635 13.376C465.287 14.7529 464.613 16.4814 464.613 18.5615C464.613 20.6416 465.302 22.3701 466.679 23.7471C468.026 25.124 469.711 25.8125 471.732 25.8125ZM471.732 37.4141C468.861 37.4141 466.474 38.4102 464.569 40.4023C462.665 42.3652 461.713 44.8408 461.713 47.8291C461.713 50.7881 462.665 53.249 464.569 55.2119C466.474 57.1748 468.861 58.1562 471.732 58.1562C474.604 58.1562 476.991 57.1748 478.896 55.2119C480.829 53.249 481.796 50.7881 481.796 47.8291C481.796 44.8408 480.829 42.3506 478.896 40.3584C476.991 38.3955 474.604 37.4141 471.732 37.4141ZM499.093 56.0469H511.134V68H499.093V56.0469ZM538.494 69.3184C531.99 69.3184 526.629 67.209 522.41 62.9902C518.221 58.7715 516.126 53.3955 516.126 46.8623V22.6484C516.126 16.0859 518.235 10.6953 522.454 6.47656C526.673 2.22852 532.02 0.104492 538.494 0.104492C544.998 0.104492 550.345 2.22852 554.534 6.47656C558.753 10.6953 560.862 16.0859 560.862 22.6484V46.8623C560.862 53.3955 558.753 58.7715 554.534 62.9902C550.345 67.209 544.998 69.3184 538.494 69.3184ZM538.494 58.1562C541.688 58.1562 544.178 57.1602 545.965 55.168C547.781 53.1465 548.689 50.3633 548.689 46.8184V22.6045C548.689 19.0596 547.781 16.291 545.965 14.2988C544.178 12.2773 541.688 11.2666 538.494 11.2666C535.301 11.2666 532.796 12.2773 530.979 14.2988C529.192 16.291 528.299 19.0596 528.299 22.6045V46.8184C528.299 50.3633 529.192 53.1465 530.979 55.168C532.796 57.1602 535.301 58.1562 538.494 58.1562Z" fill="#B7AB98"/>
<path d="M315.05 69.3184C305.411 69.3184 297.193 65.9492 290.396 59.2109C283.629 52.4727 280.245 44.3135 280.245 34.7334C280.245 25.124 283.629 16.9502 290.396 10.2119C297.193 3.47363 305.411 0.104492 315.05 0.104492C324.718 0.104492 332.936 3.47363 339.703 10.2119C346.471 16.9502 349.854 25.124 349.854 34.7334C349.854 44.3135 346.471 52.4727 339.703 59.2109C332.936 65.9492 324.718 69.3184 315.05 69.3184ZM315.05 57.8486C321.319 57.8486 326.622 55.6074 330.958 51.125C335.323 46.6426 337.506 41.1787 337.506 34.7334C337.506 28.2588 335.323 22.7803 330.958 18.2979C326.622 13.8154 321.319 11.5742 315.05 11.5742C308.78 11.5742 303.463 13.8154 299.098 18.2979C294.762 22.7803 292.594 28.2588 292.594 34.7334C292.594 41.1787 294.762 46.6426 299.098 51.125C303.463 55.6074 308.78 57.8486 315.05 57.8486ZM353.836 68V1.42285H387.762V7.13574V12.8926H366.141V29.2842H386.707V34.9971V40.7539H366.141V68H359.988H353.836ZM392.578 68V1.42285H426.504V7.13574V12.8926H404.883V29.2842H425.449V34.9971V40.7539H404.883V68H398.73H392.578Z" fill="#EB5939"/>
</g>
<defs>
<filter id="filter0_i_16_12" x="0.401367" y="0.104492" width="560.461" height="73.2139" filterUnits="userSpaceOnUse" color-interpolation-filters="sRGB">
<feFlood flood-opacity="0" result="BackgroundImageFix"/>
<feBlend mode="normal" in="SourceGraphic" in2="BackgroundImageFix" result="shape"/>
<feColorMatrix in="SourceAlpha" type="matrix" values="0 0 0 0 0 0 0 0 0 0 0 0 0 0 0 0 0 0 127 0" result="hardAlpha"/>
<feOffset dy="4"/>
<feGaussianBlur stdDeviation="2"/>
<feComposite in2="hardAlpha" operator="arithmetic" k2="-1" k3="1"/>
<feColorMatrix type="matrix" values="0 0 0 0 0 0 0 0 0 0 0 0 0 0 0 0 0 0 0.25 0"/>
<feBlend mode="normal" in2="shape" result="effect1_innerShadow_16_12"/>
</filter>
</defs>
</svg>
