<svg width="16" height="11" viewBox="0 0 16 11" fill="none" xmlns="http://www.w3.org/2000/svg">
<path id="Vector" d="M5.91382 8.92C8.66312 6.19825 11.43 3.45484 14.2144 0.689759C14.4031 0.502376 14.5988 0.32436 14.8016 0.155714C15.3799 -0.327384 16.1516 0.415707 15.9741 0.993669C15.9213 1.16231 15.7538 1.38776 15.4713 1.67001C12.4302 4.71031 9.38853 7.75002 6.34625 10.7892C5.97183 11.1633 5.53588 10.9912 5.18958 10.6486C3.55945 9.04297 1.93929 7.42737 0.329086 5.80182C-0.565667 4.89711 0.548818 3.76402 1.47345 4.67927C2.83521 6.02609 4.25205 7.43908 5.72397 8.91824C5.78725 8.98266 5.85054 8.98324 5.91382 8.92Z" fill="#1BA94C"/>
</svg>
