<svg width="153" height="150" viewBox="0 0 153 150" fill="none" xmlns="http://www.w3.org/2000/svg">
<path d="M5 120.113V29.8904C5 21.1785 5 16.8193 6.73179 13.4918C8.25511 10.5648 10.684 8.18682 13.6737 6.69545C17.0725 5 21.5252 5 30.4238 5H122.579C131.478 5 135.921 5 139.32 6.69545C142.31 8.18682 144.747 10.5648 146.27 13.4918C148 16.816 148 21.17 148 29.8649V120.135C148 128.83 148 133.178 146.27 136.502C144.747 139.429 142.31 141.815 139.32 143.306C135.924 145 131.484 145 122.602 145H116.222H36.7778H30.3977C21.5165 145 17.0692 145 13.6737 143.306C10.684 141.815 8.25511 139.429 6.73179 136.502C5 133.174 5 128.825 5 120.113Z" fill="white" fill-opacity="0.5"/>
<path d="M116.222 145C116.222 123.522 98.438 106.111 76.5 106.111C54.562 106.111 36.7778 123.522 36.7778 145M116.222 145H122.602C131.484 145 135.924 145 139.32 143.306C142.31 141.815 144.747 139.429 146.27 136.502C148 133.178 148 128.83 148 120.135V29.8649C148 21.17 148 16.816 146.27 13.4918C144.747 10.5648 142.31 8.18682 139.32 6.69545C135.921 5 131.478 5 122.579 5H30.4238C21.5252 5 17.0725 5 13.6737 6.69545C10.684 8.18682 8.25511 10.5648 6.73179 13.4918C5 16.8193 5 21.1785 5 29.8904V120.113C5 128.825 5 133.174 6.73179 136.502C8.25511 139.429 10.684 141.815 13.6737 143.306C17.0692 145 21.5165 145 30.3977 145H36.7778M116.222 145H36.7778M76.5 82.7778C63.3372 82.7778 52.6667 72.3311 52.6667 59.4444C52.6667 46.5578 63.3372 36.1111 76.5 36.1111C89.6628 36.1111 100.333 46.5578 100.333 59.4444C100.333 72.3311 89.6628 82.7778 76.5 82.7778Z" stroke="white" stroke-width="10" stroke-linecap="round" stroke-linejoin="round"/>
</svg>
