<svg width="18" height="18" viewBox="0 0 18 18" fill="none" xmlns="http://www.w3.org/2000/svg">
<g id="&#240;&#159;&#166;&#134; icon &#34;eye slash&#34;">
<g id="Group">
<path id="Vector" d="M11.024 6.97605L6.97599 11.024C6.45599 10.504 6.13599 9.79202 6.13599 9.00002C6.13599 7.41602 7.41595 6.13605 8.99995 6.13605C9.79195 6.13605 10.504 6.45605 11.024 6.97605Z" stroke="#1BA94C" stroke-width="2" stroke-linecap="round" stroke-linejoin="round"/>
<path id="Vector_2" d="M13.656 4.01597C12.256 2.95997 10.656 2.38397 9.00002 2.38397C6.176 2.38397 3.544 4.04797 1.712 6.92797C0.991997 8.05599 0.991997 9.95199 1.712 11.08C2.344 12.072 3.08 12.928 3.88 13.616" stroke="#1BA94C" stroke-width="2" stroke-linecap="round" stroke-linejoin="round"/>
<path id="Vector_3" d="M6.13599 15.0241C7.04799 15.4081 8.01595 15.6161 8.99995 15.6161C11.824 15.6161 14.456 13.9521 16.288 11.0721C17.008 9.94406 17.008 8.04806 16.288 6.92002C16.024 6.50402 15.736 6.11202 15.44 5.74402" stroke="#1BA94C" stroke-width="2" stroke-linecap="round" stroke-linejoin="round"/>
<path id="Vector_4" d="M11.8079 9.56C11.5999 10.688 10.6799 11.608 9.55188 11.816" stroke="#1BA94C" stroke-width="2" stroke-linecap="round" stroke-linejoin="round"/>
<path id="Vector_5" d="M6.976 11.024L1 17" stroke="#1BA94C" stroke-width="2" stroke-linecap="round" stroke-linejoin="round"/>
<path id="Vector_6" d="M17 1L11.024 6.976" stroke="#1BA94C" stroke-width="2" stroke-linecap="round" stroke-linejoin="round"/>
</g>
</g>
</svg>
