<svg width="812" height="321" viewBox="0 0 812 321" fill="none" xmlns="http://www.w3.org/2000/svg">
<g filter="url(#filter0_i_16_516)">
<path d="M251.925 97H243.175H234.425V2.3125H244.488H254.55L293.925 71.5V2.3125H302.675H311.425V97H301.8H292.113L251.925 27.25V97ZM367.587 98.875C353.879 98.875 342.192 94.0833 332.525 84.5C322.9 74.9167 318.087 63.3125 318.087 49.6875C318.087 36.0208 322.9 24.3958 332.525 14.8125C342.192 5.22917 353.879 0.4375 367.587 0.4375C381.337 0.4375 393.025 5.22917 402.65 14.8125C412.275 24.3958 417.087 36.0208 417.087 49.6875C417.087 63.3125 412.275 74.9167 402.65 84.5C393.025 94.0833 381.337 98.875 367.587 98.875ZM367.587 82.5625C376.504 82.5625 384.046 79.375 390.212 73C396.421 66.625 399.525 58.8542 399.525 49.6875C399.525 40.4792 396.421 32.6875 390.212 26.3125C384.046 19.9375 376.504 16.75 367.587 16.75C358.671 16.75 351.108 19.9375 344.9 26.3125C338.733 32.6875 335.65 40.4792 335.65 49.6875C335.65 58.8542 338.733 66.625 344.9 73C351.108 79.375 358.671 82.5625 367.587 82.5625ZM433.312 97V18.625H415.688V10.5V2.3125H468.438V10.4375V18.625H450.812V97H442.062H433.312ZM492.638 97L532.263 2.3125H539.075H545.888L585.513 97H575.95H566.325L556.888 72.5625H521.138L511.95 97H502.325H492.638ZM538.888 26L527.388 56.25H550.638L538.888 26ZM114.312 270.5C110.729 279.125 104.917 286.021 96.875 291.188C88.8333 296.312 79.875 298.875 70 298.875C56.4583 298.875 44.9167 294.083 35.375 284.5C25.875 274.917 21.125 263.312 21.125 249.688C21.125 236.021 25.875 224.396 35.375 214.812C44.9167 205.229 56.4583 200.438 70 200.438C79.9583 200.438 88.9792 203.062 97.0625 208.312C105.188 213.521 111.083 220.521 114.75 229.312H94.8125C91.8542 225.479 88.0625 222.438 83.4375 220.188C78.8542 217.896 74.1667 216.75 69.375 216.75C61.0417 216.75 53.8333 219.938 47.75 226.312C41.7083 232.646 38.6875 240.208 38.6875 249C38.6875 258.375 41.7708 266.312 47.9375 272.812C54.1458 279.312 61.7083 282.562 70.625 282.562C75.0417 282.562 79.3958 281.479 83.6875 279.312C87.9792 277.104 91.5417 274.167 94.375 270.5H114.312ZM163.975 298.875C150.267 298.875 138.579 294.083 128.912 284.5C119.287 274.917 114.475 263.312 114.475 249.688C114.475 236.021 119.287 224.396 128.912 214.812C138.579 205.229 150.267 200.438 163.975 200.438C177.725 200.438 189.412 205.229 199.037 214.812C208.662 224.396 213.475 236.021 213.475 249.688C213.475 263.312 208.662 274.917 199.037 284.5C189.412 294.083 177.725 298.875 163.975 298.875ZM163.975 282.562C172.892 282.562 180.433 279.375 186.6 273C192.808 266.625 195.912 258.854 195.912 249.688C195.912 240.479 192.808 232.688 186.6 226.312C180.433 219.938 172.892 216.75 163.975 216.75C155.058 216.75 147.496 219.938 141.287 226.312C135.121 232.688 132.037 240.479 132.037 249.688C132.037 258.854 135.121 266.625 141.287 273C147.496 279.375 155.058 282.562 163.975 282.562ZM236.887 297H228.137H219.387V202.312H231.575H243.825L269.012 274.25L294.012 202.312H306.2H318.45V297H309.7H300.95V225.125L275.95 297H268.95H261.95L236.887 225.312V297ZM329.362 297V202.312H338.112H354.487C365.737 202.312 374.446 204.771 380.612 209.688C386.821 214.604 389.925 221.542 389.925 230.5C389.925 240.583 386.946 248.188 380.987 253.312C375.029 258.438 366.196 261 354.487 261H346.862V297H338.112H329.362ZM346.862 244.688H354.487C360.446 244.688 364.904 243.604 367.862 241.438C370.862 239.271 372.362 236.021 372.362 231.688C372.362 227.354 370.862 224.104 367.862 221.938C364.904 219.729 360.446 218.625 354.487 218.625H346.862V244.688ZM393.337 297V202.312H444.275V210.438V218.625H410.837V241.938H442.712V250.062V258.25H410.837V280.688H444.275V288.812V297H393.337ZM464.125 297V218.625H446.5V210.5V202.312H499.25V210.438V218.625H481.625V297H472.875H464.125ZM502.288 297V202.312H511.038H519.788V297H511.038H502.288ZM540.95 297V218.625H523.325V210.5V202.312H576.075V210.438V218.625H558.45V297H549.7H540.95ZM579.112 297V202.312H587.862H596.612V297H587.862H579.112ZM653.15 298.875C639.442 298.875 627.754 294.083 618.088 284.5C608.463 274.917 603.65 263.312 603.65 249.688C603.65 236.021 608.463 224.396 618.088 214.812C627.754 205.229 639.442 200.438 653.15 200.438C666.9 200.438 678.588 205.229 688.213 214.812C697.838 224.396 702.65 236.021 702.65 249.688C702.65 263.312 697.838 274.917 688.213 284.5C678.588 294.083 666.9 298.875 653.15 298.875ZM653.15 282.562C662.067 282.562 669.608 279.375 675.775 273C681.983 266.625 685.088 258.854 685.088 249.688C685.088 240.479 681.983 232.688 675.775 226.312C669.608 219.938 662.067 216.75 653.15 216.75C644.233 216.75 636.671 219.938 630.463 226.312C624.296 232.688 621.213 240.479 621.213 249.688C621.213 258.854 624.296 266.625 630.463 273C636.671 279.375 644.233 282.562 653.15 282.562ZM726.938 297H718.188H709.438V202.312H719.5H729.562L768.938 271.5V202.312H777.688H786.438V297H776.812H767.125L726.938 227.25V297Z" fill="#0D0D0D"/>
<path d="M206.575 170.5C202.992 179.125 197.179 186.021 189.138 191.188C181.096 196.312 172.138 198.875 162.263 198.875C148.721 198.875 137.179 194.083 127.638 184.5C118.138 174.917 113.388 163.312 113.388 149.688C113.388 136.021 118.138 124.396 127.638 114.812C137.179 105.229 148.721 100.438 162.263 100.438C172.221 100.438 181.242 103.062 189.325 108.312C197.45 113.521 203.346 120.521 207.013 129.312H187.075C184.117 125.479 180.325 122.438 175.7 120.188C171.117 117.896 166.429 116.75 161.638 116.75C153.304 116.75 146.096 119.938 140.013 126.312C133.971 132.646 130.95 140.208 130.95 149C130.95 158.375 134.033 166.312 140.2 172.812C146.408 179.312 153.971 182.562 162.888 182.562C167.304 182.562 171.658 181.479 175.95 179.312C180.242 177.104 183.804 174.167 186.638 170.5H206.575ZM256.238 198.875C242.529 198.875 230.842 194.083 221.175 184.5C211.55 174.917 206.738 163.312 206.738 149.688C206.738 136.021 211.55 124.396 221.175 114.812C230.842 105.229 242.529 100.438 256.238 100.438C269.988 100.438 281.675 105.229 291.3 114.812C300.925 124.396 305.738 136.021 305.738 149.688C305.738 163.312 300.925 174.917 291.3 184.5C281.675 194.083 269.988 198.875 256.238 198.875ZM256.238 182.562C265.154 182.562 272.696 179.375 278.863 173C285.071 166.625 288.175 158.854 288.175 149.688C288.175 140.479 285.071 132.688 278.863 126.312C272.696 119.938 265.154 116.75 256.238 116.75C247.321 116.75 239.758 119.938 233.55 126.312C227.383 132.688 224.3 140.479 224.3 149.688C224.3 158.854 227.383 166.625 233.55 173C239.758 179.375 247.321 182.562 256.238 182.562ZM357.338 198.875C343.629 198.875 331.942 194.083 322.275 184.5C312.65 174.917 307.838 163.312 307.838 149.688C307.838 136.021 312.65 124.396 322.275 114.812C331.942 105.229 343.629 100.438 357.338 100.438C371.088 100.438 382.775 105.229 392.4 114.812C402.025 124.396 406.838 136.021 406.838 149.688C406.838 163.312 402.025 174.917 392.4 184.5C382.775 194.083 371.088 198.875 357.338 198.875ZM357.338 182.562C366.254 182.562 373.796 179.375 379.963 173C386.171 166.625 389.275 158.854 389.275 149.688C389.275 140.479 386.171 132.688 379.963 126.312C373.796 119.938 366.254 116.75 357.338 116.75C348.421 116.75 340.858 119.938 334.65 126.312C328.483 132.688 325.4 140.479 325.4 149.688C325.4 158.854 328.483 166.625 334.65 173C340.858 179.375 348.421 182.562 357.338 182.562ZM433.562 197H424.812H416.062V102.312H424.812H433.562V144.125L463.562 102.312H473.812H484.062L448.125 148.875L484.062 197H473.812H463.5L433.562 155.25V197ZM486.85 197V102.312H495.6H504.35V197H495.6H486.85ZM533.575 197H524.825H516.075V102.312H526.138H536.2L575.575 171.5V102.312H584.325H593.075V197H583.45H573.763L533.575 127.25V197ZM649.863 198.875C635.779 198.875 623.758 194.083 613.8 184.5C603.883 174.917 598.925 163.312 598.925 149.688C598.925 136.021 603.821 124.396 613.613 114.812C623.404 105.229 635.238 100.438 649.113 100.438C659.446 100.438 668.821 103.125 677.238 108.5C685.654 113.875 691.738 121.083 695.488 130.125H674.363C671.779 126.042 668.217 122.792 663.675 120.375C659.133 117.958 654.321 116.75 649.238 116.75C640.113 116.75 632.363 119.938 625.988 126.312C619.654 132.688 616.488 140.479 616.488 149.688C616.488 158.854 619.675 166.625 626.05 173C632.467 179.375 640.258 182.562 649.425 182.562C658.508 182.562 666.071 179.417 672.113 173.125C674.488 170.583 676.425 167.875 677.925 165H638.425V148.688H700.05V149.688C700.05 163.312 695.175 174.917 685.425 184.5C675.675 194.083 663.842 198.875 649.925 198.875H649.863Z" fill="#0D0D0D"/>
</g>

<defs>
<filter id="filter0_i_16_516" x="21.125" y="0.4375" width="765.312" height="302.438" filterUnits="userSpaceOnUse" color-interpolation-filters="sRGB">
<feFlood flood-opacity="0" result="BackgroundImageFix"/>
<feBlend mode="normal" in="SourceGraphic" in2="BackgroundImageFix" result="shape"/>
<feColorMatrix in="SourceAlpha" type="matrix" values="0 0 0 0 0 0 0 0 0 0 0 0 0 0 0 0 0 0 127 0" result="hardAlpha"/>
<feOffset dy="4"/>
<feGaussianBlur stdDeviation="2"/>
<feComposite in2="hardAlpha" operator="arithmetic" k2="-1" k3="1"/>
<feColorMatrix type="matrix" values="0 0 0 0 0 0 0 0 0 0 0 0 0 0 0 0 0 0 0.25 0"/>
<feBlend mode="normal" in2="shape" result="effect1_innerShadow_16_516"/>
</filter>
</defs>
</svg>
