<svg width="346" height="346" viewBox="0 0 346 346" fill="none" xmlns="http://www.w3.org/2000/svg">
<g filter="url(#filter0_d_16_466)">
<circle cx="173" cy="169" r="168.575" fill="#0D0D0D" stroke="#B7AB98" stroke-width="0.85"/>
<path d="M158.168 20.1592L161.318 16.9951H163.178V27H161.047V19.7417L159.377 21.4336L158.168 20.1592ZM164.929 23.9092C164.763 23.3037 164.68 22.6689 164.68 22.0049C164.68 21.3408 164.763 20.7085 164.929 20.1079C165.095 19.5073 165.341 18.9604 165.668 18.4673C165.996 17.9741 166.43 17.5811 166.972 17.2881C167.514 16.9951 168.129 16.8486 168.818 16.8486C169.506 16.8486 170.122 16.9951 170.664 17.2881C171.206 17.5811 171.64 17.9741 171.967 18.4673C172.294 18.9604 172.541 19.5073 172.707 20.1079C172.873 20.7085 172.956 21.3408 172.956 22.0049C172.956 22.6689 172.873 23.3037 172.707 23.9092C172.541 24.5098 172.294 25.0591 171.967 25.5571C171.64 26.0503 171.206 26.4458 170.664 26.7437C170.122 27.0366 169.506 27.1831 168.818 27.1831C168.129 27.1831 167.514 27.0366 166.972 26.7437C166.43 26.4458 165.996 26.0503 165.668 25.5571C165.341 25.0591 165.095 24.5098 164.929 23.9092ZM166.855 22.0049C166.855 22.6494 166.916 23.2109 167.038 23.6895C167.165 24.1631 167.377 24.5488 167.675 24.8467C167.978 25.1445 168.359 25.2935 168.818 25.2935C169.277 25.2935 169.655 25.1445 169.953 24.8467C170.256 24.5488 170.468 24.1631 170.59 23.6895C170.717 23.2109 170.781 22.6494 170.781 22.0049C170.781 21.3604 170.72 20.8037 170.598 20.335C170.476 19.8613 170.263 19.478 169.96 19.1851C169.663 18.8872 169.282 18.7383 168.818 18.7383C168.471 18.7383 168.168 18.8213 167.91 18.9873C167.651 19.1484 167.446 19.3804 167.294 19.6831C167.148 19.9858 167.038 20.3301 166.965 20.7158C166.892 21.0967 166.855 21.5264 166.855 22.0049ZM174.23 23.9092C174.064 23.3037 173.981 22.6689 173.981 22.0049C173.981 21.3408 174.064 20.7085 174.23 20.1079C174.396 19.5073 174.643 18.9604 174.97 18.4673C175.297 17.9741 175.732 17.5811 176.274 17.2881C176.816 16.9951 177.431 16.8486 178.12 16.8486C178.808 16.8486 179.423 16.9951 179.965 17.2881C180.507 17.5811 180.942 17.9741 181.269 18.4673C181.596 18.9604 181.843 19.5073 182.009 20.1079C182.175 20.7085 182.258 21.3408 182.258 22.0049C182.258 22.6689 182.175 23.3037 182.009 23.9092C181.843 24.5098 181.596 25.0591 181.269 25.5571C180.942 26.0503 180.507 26.4458 179.965 26.7437C179.423 27.0366 178.808 27.1831 178.12 27.1831C177.431 27.1831 176.816 27.0366 176.274 26.7437C175.732 26.4458 175.297 26.0503 174.97 25.5571C174.643 25.0591 174.396 24.5098 174.23 23.9092ZM176.157 22.0049C176.157 22.6494 176.218 23.2109 176.34 23.6895C176.467 24.1631 176.679 24.5488 176.977 24.8467C177.28 25.1445 177.661 25.2935 178.12 25.2935C178.579 25.2935 178.957 25.1445 179.255 24.8467C179.558 24.5488 179.77 24.1631 179.892 23.6895C180.019 23.2109 180.083 22.6494 180.083 22.0049C180.083 21.3604 180.021 20.8037 179.899 20.335C179.777 19.8613 179.565 19.478 179.262 19.1851C178.964 18.8872 178.583 18.7383 178.12 18.7383C177.773 18.7383 177.47 18.8213 177.211 18.9873C176.953 19.1484 176.748 19.3804 176.596 19.6831C176.45 19.9858 176.34 20.3301 176.267 20.7158C176.193 21.0967 176.157 21.5264 176.157 22.0049ZM183.159 19.3535C183.159 18.6357 183.393 18.04 183.862 17.5664C184.331 17.0879 184.941 16.8486 185.693 16.8486C186.455 16.8486 187.07 17.0879 187.539 17.5664C188.012 18.04 188.249 18.6357 188.249 19.3535C188.249 20.0615 188.012 20.6499 187.539 21.1187C187.07 21.5874 186.455 21.8218 185.693 21.8218C184.941 21.8218 184.331 21.5874 183.862 21.1187C183.393 20.6499 183.159 20.0615 183.159 19.3535ZM184.514 19.3535C184.514 19.7441 184.624 20.0591 184.843 20.2983C185.068 20.5376 185.351 20.6572 185.693 20.6572C186.044 20.6572 186.333 20.54 186.557 20.3057C186.782 20.0664 186.894 19.749 186.894 19.3535C186.894 18.9482 186.782 18.6235 186.557 18.3794C186.333 18.1353 186.044 18.0132 185.693 18.0132C185.351 18.0132 185.068 18.1353 184.843 18.3794C184.624 18.6235 184.514 18.9482 184.514 19.3535ZM184.719 27L191.113 16.9951H192.248L185.847 27H184.719ZM188.667 24.7075C188.667 23.9897 188.901 23.3916 189.37 22.9131C189.838 22.4297 190.449 22.188 191.201 22.188C191.953 22.188 192.565 22.4297 193.039 22.9131C193.513 23.3916 193.75 23.9897 193.75 24.7075C193.75 25.4155 193.513 26.0063 193.039 26.48C192.565 26.9487 191.953 27.1831 191.201 27.1831C190.449 27.1831 189.838 26.9487 189.37 26.48C188.901 26.0063 188.667 25.4155 188.667 24.7075ZM190.014 24.7075C190.014 25.1079 190.124 25.4253 190.344 25.6597C190.563 25.894 190.849 26.0112 191.201 26.0112C191.552 26.0112 191.84 25.894 192.065 25.6597C192.29 25.4253 192.402 25.1079 192.402 24.7075C192.402 24.3022 192.29 23.9775 192.065 23.7334C191.84 23.4893 191.552 23.3672 191.201 23.3672C190.849 23.3672 190.563 23.4893 190.344 23.7334C190.124 23.9727 190.014 24.2974 190.014 24.7075Z" fill="#B7AB98"/>
<path d="M166.999 96.9474C164.028 96.9915 161.022 97.1782 157.988 97.5385C153.529 98.3435 149.222 99.6442 145.372 101.323C140.521 103.151 135.505 105.04 130.97 105.308C130.741 105.321 130.517 105.353 130.295 105.399C123.955 106.757 118.488 110.005 114.968 114.467L114.403 115.149C114.286 115.293 114.177 115.444 114.087 115.6C110.985 120.986 110.159 127.153 111.833 133.187C112.908 136.104 114.19 138.906 115.431 141.621L115.813 142.443C118.712 148.087 120.818 154.017 122.077 160.067C122.141 160.372 122.257 160.669 122.422 160.944C123.659 162.978 124.627 165.119 125.33 167.422C125.643 168.323 125.961 169.249 126.307 170.182C126.405 170.447 126.593 170.664 126.763 170.889C126.77 171.217 126.822 171.546 126.953 171.864L132.175 184.259C132.528 185.101 133.297 185.774 134.29 186.111C135.286 186.448 136.404 186.416 137.367 186.026C147.226 182.051 170.317 172.744 202.175 189.274C202.785 189.589 203.477 189.749 204.173 189.749C204.681 189.749 205.186 189.668 205.664 189.493C206.799 189.085 207.623 188.24 207.86 187.232C208.63 183.978 208.905 178.755 208.653 174.503L208.888 173.57C209.192 172.338 209.493 171.089 209.813 169.853C212.791 164.356 218.058 159.041 223.157 153.9C231.147 145.841 239.41 137.509 238.696 128.196C238.662 127.772 238.529 127.355 238.299 126.977C237.122 125.056 235.804 123.185 234.172 121.085L233.856 120.664C233.477 120.171 233.094 119.685 232.703 119.22C232.41 118.871 232.112 118.539 231.815 118.215L231.499 117.861C230.901 117.2 230.305 116.541 229.693 115.917C229.362 115.587 229.034 115.272 228.598 114.863C227.918 114.214 227.241 113.588 226.549 112.992L225.639 112.224C224.838 111.566 224.034 110.94 223.245 110.366L222.665 109.952C212.667 102.875 202.399 101.014 196.146 99.8785L192.658 99.2265C184.514 97.9301 175.911 96.8152 166.999 96.9474ZM170.73 103.2C174.132 103.283 177.591 103.553 181.172 103.961C168.922 119.096 171.011 139.563 173.865 157.416C170.128 157.175 166.299 157.107 162.46 157.263C160.287 146.637 158.015 133.296 156.079 122.785C155.5 118.052 156.002 113.273 157.555 108.696C159.096 105.941 159.241 104.386 160.625 103.553C163.984 103.218 167.327 103.117 170.73 103.2ZM158.59 103.852C156.925 105.022 155.709 106.868 154.882 109.208C153.494 113.966 153.024 118.871 153.486 123.754C154.404 135.154 156.899 146.41 160.735 157.361C157.11 157.573 153.505 157.973 150.035 158.616C147.403 151.088 147.866 142.533 147.017 134.558C146.156 125.441 142.542 116.805 137.94 111.694C137.624 111.07 137.662 110.756 137.756 110.5C139.756 110.013 141.728 109.419 143.668 108.745C143.897 108.851 144.129 108.955 144.336 109.092L144.41 109.019C144.207 108.901 143.992 108.811 143.778 108.708C145.44 108.128 147.082 107.531 148.669 106.929C151.88 105.531 155.282 104.513 158.59 103.852ZM144.336 109.092L144.292 109.135H144.41C144.387 109.119 144.362 109.111 144.336 109.092ZM181.378 103.98C184.518 104.342 187.746 104.799 191.13 105.339L194.655 105.997C197.261 106.471 200.485 107.075 204.004 108.123C197.913 117.162 193.803 127.036 191.931 137.288C190.585 144.701 189.97 152.182 189.978 159.67C185.398 158.631 180.156 157.864 174.636 157.471C174.418 153.493 174.261 149.447 174.46 147.172C175.114 139.637 175.873 116.338 181.378 103.98ZM204.966 108.398C209.012 109.686 213.419 111.607 217.781 114.692L218.273 115.052C218.965 115.554 219.652 116.093 220.344 116.661L221.137 117.325C221.731 117.84 222.325 118.384 223.039 119.068C223.321 119.336 223.602 119.604 223.876 119.878C224.29 120.299 224.693 120.751 225.103 121.201C218.154 123.441 206.619 144.702 205.047 163.924C204.772 164.326 204.487 164.725 204.232 165.13C201.092 162.94 196.637 161.356 192.629 160.298C191.997 160.133 191.315 159.985 190.653 159.829C191.255 152.291 192.106 144.39 192.93 137.245C195.599 125.514 202.439 119.499 204.966 108.398ZM136.581 110.799C136.765 111.235 137.053 111.646 137.433 111.999C141.99 117.128 142.874 125.472 143.859 134.57C144.697 142.592 145.659 151.193 149.227 158.769C146.185 159.371 143.27 160.165 140.517 161.157C138.269 154.409 137.197 146.8 135.502 139.921C133.2 130.617 132.899 122.29 129.098 119.75C127.639 118.081 123.734 118.229 125.58 115.162C126.02 114.506 126.567 113.908 127.093 113.297C128.582 112.542 130.159 111.902 131.874 111.512C133.445 111.396 135.017 111.135 136.581 110.799ZM125.837 113.925C125.484 114.324 125.134 114.731 124.883 115.186C124.202 116.228 123.906 117.413 124.038 118.592C124.155 119.21 124.457 119.796 124.905 120.299C128.661 122.785 130.609 130.688 132.887 139.957C134.606 146.943 136.594 154.672 139.636 161.505C137.004 162.512 134.558 163.723 132.344 165.149C131.599 162.887 130.629 160.667 129.384 158.555C128.016 152.184 125.779 145.947 122.782 140.116L122.459 139.409C121.263 136.791 120.025 134.087 119.088 131.584C117.885 127.213 118.47 122.579 120.741 118.513L121.196 117.971C122.448 116.383 124.025 115.02 125.837 113.925ZM225.448 121.578C225.455 121.585 225.455 121.587 225.463 121.597L225.815 121.981C226.063 122.246 226.305 122.516 226.542 122.797C226.873 123.19 227.195 123.607 227.519 124.028L227.857 124.467C229.176 126.161 230.257 127.685 231.22 129.208C231.303 135.869 224.522 142.71 217.355 149.939C214.565 152.75 211.735 155.609 209.174 158.58C214.961 146.287 220.549 134.04 225.448 121.578ZM165.031 163.479C174.168 163.305 183.356 164.405 190.352 166.252C198.703 168.454 200.694 170.764 200.773 171.431C200.912 172.199 201.01 173.133 201.081 174.119L201.059 174.198C200.931 174.706 201.008 175.199 201.169 175.667C201.241 177.57 201.216 179.62 201.089 181.517C187.977 175.582 176.183 173.595 166.132 173.595C153.852 173.595 144.182 176.565 137.903 178.921L134.804 171.565C141.623 166.027 153.284 163.702 165.031 163.479ZM145.9 192.028L144.197 192.979C144.918 193.983 145.853 194.872 146.95 195.605C147.815 196.055 148.825 196.273 149.844 196.233C150.367 196.23 150.882 196.172 151.386 196.05L157.07 194.344C157.457 194.219 157.868 194.155 158.282 194.155C158.906 194.121 159.529 194.261 160.052 194.551C160.77 195.038 161.391 195.608 161.895 196.251L163.511 195.502V195.465C162.811 194.563 161.937 193.765 160.926 193.101C160.113 192.633 159.146 192.384 158.157 192.4C157.826 192.394 157.492 192.446 157.188 192.552L151.034 194.259C150.643 194.358 150.232 194.402 149.822 194.393C149.092 194.436 148.363 194.27 147.766 193.917C147.017 193.378 146.389 192.74 145.9 192.028ZM209.035 195.429C208.448 195.472 207.909 195.712 207.536 196.093C207.089 196.408 206.804 196.849 206.736 197.336C206.695 197.442 206.695 197.559 206.736 197.665C208.059 198.826 209.751 199.642 211.62 200.029C213.488 200.507 215.359 200.967 217.186 201.394C219.036 201.903 220.607 202.943 221.622 204.325C221.641 204.388 221.641 204.452 221.622 204.514C221.622 204.804 220.782 205.278 219.162 205.959C218.342 206.352 217.109 207.217 215.056 208.512C213.774 209.382 212.403 210.154 210.951 210.815C209.718 211.271 208.635 211.974 207.808 212.857C207.789 212.872 207.772 212.887 207.757 212.905C207.102 213.529 207.181 214.483 207.933 215.026C208.324 215.338 208.849 215.508 209.394 215.501C209.782 215.495 210.161 215.413 210.503 215.264C213.15 213.878 215.694 212.356 218.119 210.712C220.578 209.021 223.146 207.434 225.8 205.959C227.278 205.21 227.996 204.426 227.996 203.625C227.947 203.088 227.594 202.602 227.049 202.314C223.884 199.956 220.149 198.205 216.099 197.153L213.118 196.081C212.114 195.703 211.036 195.482 209.938 195.429C209.637 195.394 209.332 195.394 209.035 195.429ZM127.13 195.605C124.505 197.24 121.635 198.58 118.589 199.591C115.57 200.623 112.71 201.951 110.07 203.545C108.788 204.497 108.04 205.849 108.014 207.275C108.164 207.815 108.627 208.263 109.248 208.469C109.8 208.622 110.38 208.806 110.937 208.993C116.55 210.968 121.818 213.096 126.748 215.367C127.402 215.76 128.016 216.191 128.591 216.659C128.967 216.796 129.371 216.866 129.781 216.866C130.792 216.873 131.778 216.583 132.557 216.05C133.35 215.582 133.768 214.792 133.644 213.99C133.677 213.4 133.251 212.856 132.593 212.637L124.097 209.536C121.277 208.543 118.526 207.405 115.879 206.129C117.737 204.21 120.241 202.789 123.069 202.04C125.877 201.288 128.469 200.064 130.684 198.445C131.004 198.192 131.18 197.841 131.176 197.476C131.161 196.961 130.868 196.478 130.376 196.166C129.789 195.791 129.067 195.593 128.327 195.605H127.13ZM186.548 200.425C184.894 200.375 183.279 200.873 182.054 201.803C180.674 202.935 180.094 204.575 180.511 206.147C180.699 207.633 181.417 209.039 182.568 210.188C183.538 211.261 185.056 211.888 186.673 211.888C187.733 211.875 188.77 211.645 189.691 211.211C191.71 210.013 192.772 207.99 192.46 205.946C192.358 203.647 191.704 202.094 190.411 201.346C189.268 200.715 187.92 200.394 186.548 200.425ZM154.683 200.541C153.029 200.488 151.415 200.98 150.189 201.906C148.802 203.036 148.211 204.675 148.625 206.251C148.824 207.733 149.542 209.137 150.681 210.291C151.647 211.364 153.169 211.994 154.786 211.991C155.847 211.976 156.88 211.745 157.805 211.315C159.651 210.395 160.558 208.655 160.558 206.05C160.795 204.34 160.05 202.635 158.546 201.449C157.403 200.822 156.052 200.507 154.683 200.541ZM154.603 204.204C155.738 204.204 156.659 204.968 156.659 205.91C156.659 206.852 155.738 207.616 154.603 207.616C153.467 207.616 152.546 206.852 152.546 205.91C152.546 204.968 153.467 204.204 154.603 204.204ZM185.894 204.399C187.026 204.395 187.951 205.156 187.951 206.099C187.951 207.041 187.026 207.805 185.894 207.805C184.759 207.805 183.845 207.041 183.845 206.099C183.845 205.156 184.759 204.399 185.894 204.399ZM166 216.361C165.955 216.398 165.927 216.442 165.905 216.495V216.635C166.187 217.287 166.541 217.91 166.97 218.506C167.357 219.077 167.845 219.604 168.409 220.059C168.917 220.499 169.51 220.864 170.171 221.132C170.822 221.36 171.521 221.485 172.228 221.504L172.308 221.577C172.876 221.58 173.438 221.492 173.968 221.321C174.476 221.149 174.956 220.928 175.4 220.663C175.821 220.382 176.218 220.076 176.575 219.743C176.914 219.424 177.212 219.084 177.471 218.719C177.719 218.397 177.944 218.063 178.132 217.713C178.279 217.461 178.398 217.202 178.485 216.933V216.781C178.443 216.734 178.408 216.682 178.382 216.629C177.848 217.312 177.184 217.912 176.414 218.414C175.823 218.876 175.121 219.232 174.357 219.456C173.587 219.678 172.772 219.785 171.956 219.779C171.26 219.789 170.565 219.707 169.9 219.542C169.328 219.392 168.795 219.159 168.321 218.859C167.84 218.538 167.404 218.177 167.028 217.774C166.633 217.331 166.286 216.857 166 216.361ZM160.558 222.899C152.347 223.258 147.56 232.01 136.104 223.935C132.983 239.438 155.815 240.976 165.2 233.971C171.689 229.167 169.861 222.472 160.558 222.899ZM179.373 222.899C171.531 223.3 170.307 229.47 176.392 233.971C185.777 240.973 208.601 239.438 205.48 223.935C194.023 232.01 189.241 223.255 181.025 222.899C180.444 222.872 179.896 222.872 179.373 222.899Z" fill="#B7AB98"/>
</g>
<defs>
<filter id="filter0_d_16_466" x="0" y="0" width="346" height="346" filterUnits="userSpaceOnUse" color-interpolation-filters="sRGB">
<feFlood flood-opacity="0" result="BackgroundImageFix"/>
<feColorMatrix in="SourceAlpha" type="matrix" values="0 0 0 0 0 0 0 0 0 0 0 0 0 0 0 0 0 0 127 0" result="hardAlpha"/>
<feOffset dy="4"/>
<feGaussianBlur stdDeviation="2"/>
<feComposite in2="hardAlpha" operator="out"/>
<feColorMatrix type="matrix" values="0 0 0 0 0 0 0 0 0 0 0 0 0 0 0 0 0 0 0.25 0"/>
<feBlend mode="normal" in2="BackgroundImageFix" result="effect1_dropShadow_16_466"/>
<feBlend mode="normal" in="SourceGraphic" in2="effect1_dropShadow_16_466" result="shape"/>
</filter>
</defs>
</svg>
