<svg width="28" height="36" viewBox="0 0 28 36" fill="none" xmlns="http://www.w3.org/2000/svg">
<path id="Vector" d="M23.5302 12.1467H22.8854C22.8608 12.1467 22.8411 12.127 22.8411 12.1024V8.84849C22.8411 6.51516 21.9501 4.30981 20.3305 2.64596C19.0309 1.307 17.372 0.440615 15.5457 0.130489C10.0963 -0.809736 5.13432 3.45327 5.13432 8.9814V12.1024C5.13432 12.127 5.11463 12.1467 5.09001 12.1467H4.51899C2.02321 12.1467 0 14.1699 0 16.6656V30.6607C0 33.1565 2.02321 35.1797 4.51899 35.1797H23.481C25.9768 35.1797 28 33.1565 28 30.6607V16.6213C28.0049 14.1502 26.0014 12.1467 23.5302 12.1467ZM7.25597 8.84849C7.25597 4.79715 9.93882 2.11924 13.9852 2.11924C15.9691 2.11924 17.4655 2.73949 18.8143 4.12767C20.1336 5.48632 20.7145 6.94343 20.7145 8.84849V12.1024C20.7145 12.127 20.6948 12.1467 20.6702 12.1467H7.30028C7.27566 12.1467 7.25597 12.127 7.25597 12.1024V8.84849ZM25.8882 30.705C25.8882 32.2803 25.1055 33.063 23.5302 33.063H4.52391C3.19972 33.063 2.12166 31.9898 2.12166 30.6607V16.9955C2.12166 15.4891 3.34247 14.2683 4.8488 14.2683H23.481C24.8052 14.2683 25.8833 15.3415 25.8833 16.6706V30.705H25.8882Z" fill="#99948E"/>
</svg>
