<svg width="338" height="338" viewBox="0 0 338 338" fill="none" xmlns="http://www.w3.org/2000/svg">
    <path
        d="M162.999 96.9474C160.028 96.9915 157.022 97.1782 153.988 97.5385C149.529 98.3435 145.222 99.6442 141.372 101.323C136.521 103.151 131.505 105.04 126.97 105.308C126.741 105.321 126.517 105.353 126.295 105.399C119.955 106.757 114.488 110.005 110.968 114.467L110.403 115.149C110.286 115.293 110.177 115.444 110.087 115.6C106.985 120.986 106.159 127.153 107.833 133.187C108.908 136.104 110.19 138.906 111.431 141.621L111.813 142.443C114.712 148.087 116.818 154.017 118.077 160.067C118.141 160.372 118.257 160.669 118.422 160.944C119.659 162.978 120.627 165.119 121.33 167.422C121.643 168.323 121.961 169.249 122.307 170.182C122.405 170.447 122.593 170.664 122.763 170.889C122.77 171.217 122.822 171.546 122.953 171.864L128.175 184.259C128.528 185.101 129.297 185.774 130.29 186.111C131.286 186.448 132.404 186.416 133.367 186.026C143.226 182.051 166.317 172.744 198.175 189.274C198.785 189.589 199.477 189.749 200.173 189.749C200.681 189.749 201.186 189.668 201.664 189.493C202.799 189.085 203.623 188.24 203.86 187.232C204.63 183.978 204.905 178.755 204.653 174.503L204.888 173.57C205.192 172.338 205.493 171.089 205.813 169.853C208.791 164.356 214.058 159.041 219.157 153.9C227.147 145.841 235.41 137.509 234.696 128.196C234.662 127.772 234.529 127.355 234.299 126.977C233.122 125.056 231.804 123.185 230.172 121.085L229.856 120.664C229.477 120.171 229.094 119.685 228.703 119.22C228.41 118.871 228.112 118.539 227.815 118.215L227.499 117.861C226.901 117.2 226.305 116.541 225.693 115.917C225.362 115.587 225.034 115.272 224.598 114.863C223.918 114.214 223.241 113.588 222.549 112.992L221.639 112.224C220.838 111.566 220.034 110.94 219.245 110.366L218.665 109.952C208.667 102.875 198.399 101.014 192.146 99.8785L188.658 99.2265C180.514 97.9301 171.911 96.8152 162.999 96.9474ZM166.73 103.2C170.132 103.283 173.591 103.553 177.172 103.961C164.922 119.096 167.011 139.563 169.865 157.416C166.128 157.175 162.299 157.107 158.46 157.263C156.287 146.637 154.015 133.296 152.079 122.785C151.5 118.052 152.002 113.273 153.555 108.696C155.096 105.941 155.241 104.386 156.625 103.553C159.984 103.218 163.327 103.117 166.73 103.2ZM154.59 103.852C152.925 105.022 151.709 106.868 150.882 109.208C149.494 113.966 149.024 118.871 149.486 123.754C150.404 135.154 152.899 146.41 156.735 157.361C153.11 157.573 149.505 157.973 146.035 158.616C143.403 151.088 143.866 142.533 143.017 134.558C142.156 125.441 138.542 116.805 133.94 111.694C133.624 111.07 133.662 110.756 133.756 110.5C135.756 110.013 137.728 109.419 139.668 108.745C139.897 108.851 140.129 108.955 140.336 109.092L140.41 109.019C140.207 108.901 139.992 108.811 139.778 108.708C141.44 108.128 143.082 107.531 144.669 106.929C147.88 105.531 151.282 104.513 154.59 103.852ZM140.336 109.092L140.292 109.135H140.41C140.387 109.119 140.362 109.111 140.336 109.092ZM177.378 103.98C180.518 104.342 183.746 104.799 187.13 105.339L190.655 105.997C193.261 106.471 196.485 107.075 200.004 108.123C193.913 117.162 189.803 127.036 187.931 137.288C186.585 144.701 185.97 152.182 185.978 159.67C181.398 158.631 176.156 157.864 170.636 157.471C170.418 153.493 170.261 149.447 170.46 147.172C171.114 139.637 171.873 116.338 177.378 103.98ZM200.966 108.398C205.012 109.686 209.419 111.607 213.781 114.692L214.273 115.052C214.965 115.554 215.652 116.093 216.344 116.661L217.137 117.325C217.731 117.84 218.325 118.384 219.039 119.068C219.321 119.336 219.602 119.604 219.876 119.878C220.29 120.299 220.693 120.751 221.103 121.201C214.154 123.441 202.619 144.702 201.047 163.924C200.772 164.326 200.487 164.725 200.232 165.13C197.092 162.94 192.637 161.356 188.629 160.298C187.997 160.133 187.315 159.985 186.653 159.829C187.255 152.291 188.106 144.39 188.93 137.245C191.599 125.514 198.439 119.499 200.966 108.398ZM132.581 110.799C132.765 111.235 133.053 111.646 133.433 111.999C137.99 117.128 138.874 125.472 139.859 134.57C140.697 142.592 141.659 151.193 145.227 158.769C142.185 159.371 139.27 160.165 136.517 161.157C134.269 154.409 133.197 146.8 131.502 139.921C129.2 130.617 128.899 122.29 125.098 119.75C123.639 118.081 119.734 118.229 121.58 115.162C122.02 114.506 122.567 113.908 123.093 113.297C124.582 112.542 126.159 111.902 127.874 111.512C129.445 111.396 131.017 111.135 132.581 110.799ZM121.837 113.925C121.484 114.324 121.134 114.731 120.883 115.186C120.202 116.228 119.906 117.413 120.038 118.592C120.155 119.21 120.457 119.796 120.905 120.299C124.661 122.785 126.609 130.688 128.887 139.957C130.606 146.943 132.594 154.672 135.636 161.505C133.004 162.512 130.558 163.723 128.344 165.149C127.599 162.887 126.629 160.667 125.384 158.555C124.016 152.184 121.779 145.947 118.782 140.116L118.459 139.409C117.263 136.791 116.025 134.087 115.088 131.584C113.885 127.213 114.47 122.579 116.741 118.513L117.196 117.971C118.448 116.383 120.025 115.02 121.837 113.925ZM221.448 121.578C221.455 121.585 221.455 121.587 221.463 121.597L221.815 121.981C222.063 122.246 222.305 122.516 222.542 122.797C222.873 123.19 223.195 123.607 223.519 124.028L223.857 124.467C225.176 126.161 226.257 127.685 227.22 129.208C227.303 135.869 220.522 142.71 213.355 149.939C210.565 152.75 207.735 155.609 205.174 158.58C210.961 146.287 216.549 134.04 221.448 121.578ZM161.031 163.479C170.168 163.305 179.356 164.405 186.352 166.252C194.703 168.454 196.694 170.764 196.773 171.431C196.912 172.199 197.01 173.133 197.081 174.119L197.059 174.198C196.931 174.706 197.008 175.199 197.169 175.667C197.241 177.57 197.216 179.62 197.089 181.517C183.977 175.582 172.183 173.595 162.132 173.595C149.852 173.595 140.182 176.565 133.903 178.921L130.804 171.565C137.623 166.027 149.284 163.702 161.031 163.479ZM141.9 192.028L140.197 192.979C140.918 193.983 141.853 194.872 142.95 195.605C143.815 196.055 144.825 196.273 145.844 196.233C146.367 196.23 146.882 196.172 147.386 196.05L153.07 194.344C153.457 194.219 153.868 194.155 154.282 194.155C154.906 194.121 155.529 194.261 156.052 194.551C156.77 195.038 157.391 195.608 157.895 196.251L159.511 195.502V195.465C158.811 194.563 157.937 193.765 156.926 193.101C156.113 192.633 155.146 192.384 154.157 192.4C153.826 192.394 153.492 192.446 153.188 192.552L147.034 194.259C146.643 194.358 146.232 194.402 145.822 194.393C145.092 194.436 144.363 194.27 143.766 193.917C143.017 193.378 142.389 192.74 141.9 192.028ZM205.035 195.429C204.448 195.472 203.909 195.712 203.536 196.093C203.089 196.408 202.804 196.849 202.736 197.336C202.695 197.442 202.695 197.559 202.736 197.665C204.059 198.826 205.751 199.642 207.62 200.029C209.488 200.507 211.359 200.967 213.186 201.394C215.036 201.903 216.607 202.943 217.622 204.325C217.641 204.388 217.641 204.452 217.622 204.514C217.622 204.804 216.782 205.278 215.162 205.959C214.342 206.352 213.109 207.217 211.056 208.512C209.774 209.382 208.403 210.154 206.951 210.815C205.718 211.271 204.635 211.974 203.808 212.857C203.789 212.872 203.772 212.887 203.757 212.905C203.102 213.529 203.181 214.483 203.933 215.026C204.324 215.338 204.849 215.508 205.394 215.501C205.782 215.495 206.161 215.413 206.503 215.264C209.15 213.878 211.694 212.356 214.119 210.712C216.578 209.021 219.146 207.434 221.8 205.959C223.278 205.21 223.996 204.426 223.996 203.625C223.947 203.088 223.594 202.602 223.049 202.314C219.884 199.956 216.149 198.205 212.099 197.153L209.118 196.081C208.114 195.703 207.036 195.482 205.938 195.429C205.637 195.394 205.332 195.394 205.035 195.429ZM123.13 195.605C120.505 197.24 117.635 198.58 114.589 199.591C111.57 200.623 108.71 201.951 106.07 203.545C104.788 204.497 104.04 205.849 104.014 207.275C104.164 207.815 104.627 208.263 105.248 208.469C105.8 208.622 106.38 208.806 106.937 208.993C112.55 210.968 117.818 213.096 122.748 215.367C123.402 215.76 124.016 216.191 124.591 216.659C124.967 216.796 125.371 216.866 125.781 216.866C126.792 216.873 127.778 216.583 128.557 216.05C129.35 215.582 129.768 214.792 129.644 213.99C129.677 213.4 129.251 212.856 128.593 212.637L120.097 209.536C117.277 208.543 114.526 207.405 111.879 206.129C113.737 204.21 116.241 202.789 119.069 202.04C121.877 201.288 124.469 200.064 126.684 198.445C127.004 198.192 127.18 197.841 127.176 197.476C127.161 196.961 126.868 196.478 126.376 196.166C125.789 195.791 125.067 195.593 124.327 195.605H123.13ZM182.548 200.425C180.894 200.375 179.279 200.873 178.054 201.803C176.674 202.935 176.094 204.575 176.511 206.147C176.699 207.633 177.417 209.039 178.568 210.188C179.538 211.261 181.056 211.888 182.673 211.888C183.733 211.875 184.77 211.645 185.691 211.211C187.71 210.013 188.772 207.99 188.46 205.946C188.358 203.647 187.704 202.094 186.411 201.346C185.268 200.715 183.92 200.394 182.548 200.425ZM150.683 200.541C149.029 200.488 147.415 200.98 146.189 201.906C144.802 203.036 144.211 204.675 144.625 206.251C144.824 207.733 145.542 209.137 146.681 210.291C147.647 211.364 149.169 211.994 150.786 211.991C151.847 211.976 152.88 211.745 153.805 211.315C155.651 210.395 156.558 208.655 156.558 206.05C156.795 204.34 156.05 202.635 154.546 201.449C153.403 200.822 152.052 200.507 150.683 200.541ZM150.603 204.204C151.738 204.204 152.659 204.968 152.659 205.91C152.659 206.852 151.738 207.616 150.603 207.616C149.467 207.616 148.546 206.852 148.546 205.91C148.546 204.968 149.467 204.204 150.603 204.204ZM181.894 204.399C183.026 204.395 183.951 205.156 183.951 206.099C183.951 207.041 183.026 207.805 181.894 207.805C180.759 207.805 179.845 207.041 179.845 206.099C179.845 205.156 180.759 204.399 181.894 204.399ZM162 216.361C161.955 216.398 161.927 216.442 161.905 216.495V216.635C162.187 217.287 162.541 217.91 162.97 218.506C163.357 219.077 163.845 219.604 164.409 220.059C164.917 220.499 165.51 220.864 166.171 221.132C166.822 221.36 167.521 221.485 168.228 221.504L168.308 221.577C168.876 221.58 169.438 221.492 169.968 221.321C170.476 221.149 170.956 220.928 171.4 220.663C171.821 220.382 172.218 220.076 172.575 219.743C172.914 219.424 173.212 219.084 173.471 218.719C173.719 218.397 173.944 218.063 174.132 217.713C174.279 217.461 174.398 217.202 174.485 216.933V216.781C174.443 216.734 174.408 216.682 174.382 216.629C173.848 217.312 173.184 217.912 172.414 218.414C171.823 218.876 171.121 219.232 170.357 219.456C169.587 219.678 168.772 219.785 167.956 219.779C167.26 219.789 166.565 219.707 165.9 219.542C165.328 219.392 164.795 219.159 164.321 218.859C163.84 218.538 163.404 218.177 163.028 217.774C162.633 217.331 162.286 216.857 162 216.361ZM156.558 222.899C148.347 223.258 143.56 232.01 132.104 223.935C128.983 239.438 151.815 240.976 161.2 233.971C167.689 229.167 165.861 222.472 156.558 222.899ZM175.373 222.899C167.531 223.3 166.307 229.47 172.392 233.971C181.777 240.973 204.601 239.438 201.48 223.935C190.023 232.01 185.241 223.255 177.025 222.899C176.444 222.872 175.896 222.872 175.373 222.899Z"
        fill="#B7AB98" />
    <circle cx="169" cy="169" r="168.5" fill="#D9D9D9" fill-opacity="0.1" stroke="black" />
</svg>
    