<svg width="26" height="23" viewBox="0 0 26 23" fill="none" xmlns="http://www.w3.org/2000/svg">
<g id="&#240;&#159;&#166;&#134; icon &#34;eye&#34;">
<g id="Group">
<path id="Vector" d="M17.3905 11.1543C17.3905 13.5825 15.4283 15.5446 13.0001 15.5446C10.5719 15.5446 8.60974 13.5825 8.60974 11.1543C8.60974 8.72605 10.5719 6.76392 13.0001 6.76392C15.4283 6.76392 17.3905 8.72605 17.3905 11.1543Z" stroke="#B7AB98" stroke-width="2" stroke-linecap="round" stroke-linejoin="round"/>
<path id="Vector_2" d="M13 21.2964C17.3291 21.2964 21.3638 18.7455 24.1722 14.3306C25.2759 12.6014 25.2759 9.69496 24.1722 7.96575C21.3638 3.55084 17.3291 1 13 1C8.67091 1 4.63617 3.55084 1.8278 7.96575C0.724068 9.69496 0.724068 12.6014 1.8278 14.3306C4.63617 18.7455 8.67091 21.2964 13 21.2964Z" stroke="#B7AB98" stroke-width="2" stroke-linecap="round" stroke-linejoin="round"/>
</g>
</g>
</svg>
