<svg width="18" height="16" viewBox="0 0 18 16" fill="none" xmlns="http://www.w3.org/2000/svg">
<g id="&#240;&#159;&#166;&#134; icon &#34;eye&#34;">
<g id="Group">
<path id="Vector" d="M11.9269 7.76954C11.9269 9.38834 10.6188 10.6965 9.00001 10.6965C7.38121 10.6965 6.07312 9.38834 6.07312 7.76954C6.07312 6.15074 7.38121 4.84265 9.00001 4.84265C10.6188 4.84265 11.9269 6.15074 11.9269 7.76954Z" stroke="#1BA94C" stroke-width="2" stroke-linecap="round" stroke-linejoin="round"/>
<path id="Vector_2" d="M9.00001 14.5309C11.8861 14.5309 14.5759 12.8304 16.4481 9.88708C17.184 8.7343 17.184 6.79664 16.4481 5.64384C14.5759 2.70056 11.8861 1 9.00001 1C6.11394 1 3.42411 2.70056 1.55186 5.64384C0.816045 6.79664 0.816045 8.7343 1.55186 9.88708C3.42411 12.8304 6.11394 14.5309 9.00001 14.5309Z" stroke="#EB3939" stroke-width="2" stroke-linecap="round" stroke-linejoin="round"/>
</g>
</g>
</svg>
