<svg width="16" height="16" viewBox="0 0 16 16" fill="none" xmlns="http://www.w3.org/2000/svg">
<path id="Vector" d="M13.486 11.9833C14.0522 12.5709 15.087 13.4796 15.7841 14.367C16.5548 15.3543 15.1013 16.6793 13.9546 15.5541C11.5186 13.1656 10.0127 11.4932 8.06195 9.69233C8.00327 9.63841 7.94618 9.63999 7.89067 9.69709C5.93517 11.6351 3.9749 13.5669 2.00988 15.4922C0.65863 16.8149 -0.697378 15.183 0.404081 14.0791C2.37545 12.0998 4.35236 10.1213 6.33483 8.14363C6.34828 8.13067 6.35896 8.11512 6.36626 8.09788C6.37355 8.08064 6.37732 8.06207 6.37732 8.04324C6.37732 8.0244 6.37355 8.0057 6.36626 7.98821C6.35896 7.97073 6.34828 7.95482 6.33483 7.94141C4.38091 6.00335 2.4262 4.05023 0.470691 2.08203C-0.752095 0.852109 0.825154 -0.641876 1.78388 0.293056C3.79172 2.24856 5.81384 4.26275 7.85023 6.33562C7.88377 6.36949 7.92933 6.38875 7.97701 6.38919C8.02468 6.38964 8.0706 6.37124 8.10478 6.338C10.0983 4.38091 12.0872 2.41191 14.0712 0.431032C15.2274 -0.727522 16.6952 0.9211 15.5604 2.04635C13.5637 4.02723 11.5828 5.99146 9.61779 7.93904C9.60327 7.9534 9.59179 7.97052 9.58402 7.98941C9.57625 8.0083 9.57236 8.02855 9.57258 8.04897C9.57281 8.06939 9.57714 8.08956 9.58531 8.10827C9.59349 8.12698 9.60534 8.14386 9.62017 8.1579C10.9334 9.39337 12.222 10.6685 13.486 11.9833Z" fill="#EB3939"/>
</svg>
